<?xml version="1.0" encoding="utf-8"?>
<!-- Generator: Adobe Illustrator 16.0.0, SVG Export Plug-In . SVG Version: 6.00 Build 0)  -->
<!DOCTYPE svg PUBLIC "-//W3C//DTD SVG 1.1//EN" "http://www.w3.org/Graphics/SVG/1.1/DTD/svg11.dtd">
<svg version="1.1" id="Layer_1" xmlns="http://www.w3.org/2000/svg" xmlns:xlink="http://www.w3.org/1999/xlink" x="0px" y="0px"
	 width="640px" height="270.674px" viewBox="0 0 640 270.674" enable-background="new 0 0 640 270.674" xml:space="preserve">
<circle fill="#FFFFFF" stroke="#000000" stroke-miterlimit="10" cx="569.077" cy="200.409" r="64.137"/>
<circle fill="#FFFFFF" stroke="#000000" stroke-miterlimit="10" cx="569.352" cy="200.605" r="44.605"/>
<circle fill="#CCCCCC" stroke="#000000" stroke-miterlimit="10" cx="569.549" cy="200.566" r="25.939"/>
<text transform="matrix(1 0 0 1 550.9658 240.3535)" font-family="'MyriadPro-Semibold'" font-size="16.9776">MAN</text>
<text transform="matrix(1 0 0 1 17.772 47.3672)" font-family="'MyriadPro-Semibold'" font-size="53.5836">GOD</text>
<text transform="matrix(1 0 0 1 9.3511 179.3574)" font-family="'MyriadPro-Regular'" font-size="26.7918">Incarnation</text>
<g>
	<g>
		<line fill="none" stroke="#000000" stroke-width="2" stroke-miterlimit="10" x1="73" y1="54" x2="73" y2="144"/>
		<g>
			<polygon points="72.921,154.876 66.823,139.952 72.921,143.493 79.018,139.952 			"/>
		</g>
	</g>
</g>
<g>
	<g>
		<line fill="none" stroke="#000000" stroke-width="2" stroke-miterlimit="10" x1="142" y1="174" x2="246" y2="174"/>
		<g>
			<polygon points="256.917,174.412 241.994,180.51 245.535,174.412 241.994,168.315 			"/>
		</g>
	</g>
</g>
<g>
	<line fill="none" stroke="#000000" stroke-width="4" stroke-miterlimit="10" x1="267" y1="89" x2="267" y2="176"/>
	<line fill="none" stroke="#000000" stroke-width="4" stroke-miterlimit="10" x1="238" y1="115" x2="295" y2="115"/>
</g>
<g>
	<g>
		
			<line fill="none" stroke="#000000" stroke-width="2" stroke-miterlimit="10" x1="276.121" y1="175.604" x2="313.489" y2="198.228"/>
		<g>
			<polygon points="322.549,203.713 306.624,201.2 312.812,197.818 312.94,190.769 			"/>
		</g>
	</g>
</g>
<text transform="matrix(1 0 0 1 330.5146 223.6533)" font-family="'MyriadPro-Regular'" font-size="26.7918">Burial</text>
<text transform="matrix(1 0 0 1 207.3574 83.3696)" font-family="'MyriadPro-Regular'" font-size="26.7918">Crucifixion</text>
<g>
	<g>
		
			<line fill="none" stroke="#000000" stroke-width="2" stroke-miterlimit="10" x1="397.844" y1="195.267" x2="469.522" y2="64.174"/>
		<g>
			<polygon points="474.604,54.882 472.794,70.902 469.143,64.869 462.095,65.051 			"/>
		</g>
	</g>
</g>
<text transform="matrix(1 0 0 1 414.2432 47.3667)" font-family="'MyriadPro-Regular'" font-size="26.7918">Enthronement</text>
<g>
	<g>
		
			<line fill="none" stroke="#000000" stroke-width="2" stroke-miterlimit="10" x1="493.791" y1="59.178" x2="565.102" y2="191.786"/>
		<g>
			<polygon points="570.117,201.113 557.678,190.857 564.727,191.088 568.419,185.082 			"/>
		</g>
	</g>
</g>
<text transform="matrix(1 0 0 1 168.3696 169.1133)"><tspan x="0" y="0" font-family="'MyriadPro-Regular'" font-size="15.6285">Human</tspan><tspan x="4.212" y="20.094" font-family="'MyriadPro-Regular'" font-size="15.6285">Living</tspan></text>
<text transform="matrix(0.4849 -0.8746 0.8746 0.4849 409.8486 163.7568)"><tspan x="0" y="0" font-family="'MyriadPro-Regular'" font-size="15.6285">Resurrection</tspan><tspan x="-12.268" y="20.094" font-family="'MyriadPro-Regular'" font-size="15.6285">Life-giving Spirit</tspan></text>
<text transform="matrix(0.4794 0.8776 -0.8776 0.4794 505.9814 69.9155)" font-family="'MyriadPro-Regular'" font-size="15.6285">Dispensing</text>
<rect x="406.5" y="18.5" fill="none" stroke="#000000" stroke-miterlimit="10" width="178" height="42"/>
<rect x="6.5" y="155.5" fill="none" stroke="#000000" stroke-miterlimit="10" width="135" height="33"/>
<ellipse fill="none" stroke="#000000" stroke-width="2" stroke-miterlimit="10" cx="361.321" cy="214.374" rx="47.257" ry="26.672"/>
</svg>
