<?xml version="1.0" encoding="utf-8"?>
<!-- Generator: Adobe Illustrator 16.0.0, SVG Export Plug-In . SVG Version: 6.00 Build 0)  -->
<!DOCTYPE svg PUBLIC "-//W3C//DTD SVG 1.1//EN" "http://www.w3.org/Graphics/SVG/1.1/DTD/svg11.dtd">
<svg version="1.1" id="Layer_1" xmlns="http://www.w3.org/2000/svg" xmlns:xlink="http://www.w3.org/1999/xlink" x="0px" y="0px"
	 width="286.606px" height="281.558px" viewBox="0 0 286.606 281.558" enable-background="new 0 0 286.606 281.558"
	 xml:space="preserve">
<g>
	<g>
		<g>
			<line fill="none" stroke="#000000" stroke-miterlimit="10" x1="142.768" y1="140.27" x2="143.202" y2="52.631"/>
			<g>
				<polygon points="148.293,56.798 147.374,57.646 143.201,53.111 138.981,57.605 138.07,56.748 143.21,51.276 				"/>
			</g>
		</g>
	</g>
	<g>
		<g>
			<line fill="none" stroke="#000000" stroke-miterlimit="10" x1="143.225" y1="47.987" x2="143.396" y2="13.437"/>
			<g>
				<polygon points="148.488,17.604 147.568,18.453 143.395,13.917 139.176,18.411 138.265,17.554 143.404,12.082 				"/>
			</g>
		</g>
	</g>
	<g>
		<g>
			<line fill="none" stroke="#000000" stroke-miterlimit="10" x1="139.371" y1="144.854" x2="77.707" y2="82.578"/>
			<g>
				<polygon points="84.254,81.924 84.204,83.174 78.045,82.918 78.24,89.079 76.989,89.117 76.754,81.614 				"/>
			</g>
		</g>
	</g>
	<g>
		<g>
			<line fill="none" stroke="#000000" stroke-miterlimit="10" x1="74.439" y1="79.278" x2="50.129" y2="54.727"/>
			<g>
				<polygon points="56.677,54.073 56.626,55.323 50.468,55.066 50.662,61.228 49.412,61.266 49.177,53.762 				"/>
			</g>
		</g>
	</g>
	<g>
		<g>
			<line fill="none" stroke="#000000" stroke-miterlimit="10" x1="144.531" y1="140.464" x2="56.891" y2="140.031"/>
			<g>
				<polygon points="61.058,134.939 61.906,135.858 57.371,140.032 61.865,144.251 61.008,145.162 55.536,140.022 				"/>
			</g>
		</g>
	</g>
	<g>
		<g>
			<line fill="none" stroke="#000000" stroke-miterlimit="10" x1="52.247" y1="140.008" x2="17.697" y2="139.836"/>
			<g>
				<polygon points="21.864,134.745 22.712,135.665 18.177,139.837 22.67,144.057 21.813,144.968 16.341,139.828 				"/>
			</g>
		</g>
	</g>
	<g>
		<g>
			<line fill="none" stroke="#000000" stroke-miterlimit="10" x1="142.331" y1="137.011" x2="80.055" y2="198.675"/>
			<g>
				<polygon points="79.401,192.128 80.651,192.179 80.395,198.337 86.556,198.142 86.594,199.393 79.09,199.628 				"/>
			</g>
		</g>
	</g>
	<g>
		<g>
			<line fill="none" stroke="#000000" stroke-miterlimit="10" x1="75.776" y1="202.912" x2="51.224" y2="227.221"/>
			<g>
				<polygon points="50.57,220.673 51.82,220.724 51.564,226.882 57.725,226.688 57.763,227.938 50.26,228.173 				"/>
			</g>
		</g>
	</g>
	<g>
		<g>
			<line fill="none" stroke="#000000" stroke-miterlimit="10" x1="147.801" y1="144.896" x2="210.079" y2="83.233"/>
			<g>
				<polygon points="210.733,89.781 209.483,89.73 209.739,83.572 203.578,83.766 203.54,82.516 211.043,82.281 				"/>
			</g>
		</g>
	</g>
	<g>
		<g>
			<line fill="none" stroke="#000000" stroke-miterlimit="10" x1="213.379" y1="79.966" x2="237.93" y2="55.657"/>
			<g>
				<polygon points="238.584,62.204 237.334,62.153 237.59,55.995 231.429,56.19 231.391,54.939 238.895,54.704 				"/>
			</g>
		</g>
	</g>
	<g>
		<g>
			<line fill="none" stroke="#000000" stroke-miterlimit="10" x1="143.645" y1="143.381" x2="231.284" y2="143.816"/>
			<g>
				<polygon points="227.116,148.908 226.268,147.988 230.804,143.815 226.31,139.596 227.167,138.685 232.639,143.824 				"/>
			</g>
		</g>
	</g>
	<g>
		<g>
			<line fill="none" stroke="#000000" stroke-miterlimit="10" x1="235.928" y1="143.839" x2="270.478" y2="144.01"/>
			<g>
				<polygon points="266.311,149.102 265.462,148.183 269.998,144.009 265.504,139.79 266.361,138.879 271.833,144.019 				"/>
			</g>
		</g>
	</g>
	<g>
		<g>
			<line fill="none" stroke="#000000" stroke-miterlimit="10" x1="142.955" y1="139.937" x2="204.619" y2="202.214"/>
			<g>
				<polygon points="198.071,202.868 198.122,201.618 204.28,201.874 204.086,195.713 205.336,195.675 205.571,203.178 				"/>
			</g>
		</g>
	</g>
	<circle fill="none" stroke="#000000" stroke-miterlimit="10" cx="143.457" cy="139.791" r="132.457"/>
	<circle fill="none" stroke="#000000" stroke-miterlimit="10" cx="144.023" cy="140.2" r="92.119"/>
	<circle fill="#CCCCCC" stroke="#000000" stroke-miterlimit="10" cx="144.371" cy="140.061" r="50.587"/>
	<text transform="matrix(1 0.005 -0.005 1 123.9473 125.0781)"><tspan x="0" y="0" font-family="'MyriadPro-Regular'" font-size="23.3748">God</tspan><tspan x="-9.829" y="23.374" font-family="'MyriadPro-Regular'" font-size="23.3748">in the </tspan><tspan x="-3.88" y="46.749" font-family="'MyriadPro-Regular'" font-size="23.3748">spirit</tspan></text>
	<text transform="matrix(1 0.005 -0.005 1 123.1411 217.9307)" font-family="'MyriadPro-Regular'" font-size="23.3748">Soul</text>
	<text transform="matrix(1 0.005 -0.005 1 118.7808 256.8672)" font-family="'MyriadPro-Regular'" font-size="23.3748">Body</text>
	<g>
		<g>
			<line fill="none" stroke="#000000" stroke-miterlimit="10" x1="207.886" y1="205.514" x2="232.196" y2="230.065"/>
			<g>
				<polygon points="225.649,230.719 225.7,229.469 231.858,229.725 231.663,223.564 232.914,223.526 233.149,231.029 				"/>
			</g>
		</g>
	</g>
</g>
</svg>
